<svg width="16" height="33" viewBox="0 0 16 33" fill="none" xmlns="http://www.w3.org/2000/svg">
<path d="M0 15.0557H2.74063V33H8.82141V15.0557H13.1037L14.3027 9.27851H8.56448C8.56448 9.27851 8.13625 6.82759 8.9927 5.95225C9.42092 5.51459 10.1917 5.16446 11.2195 5.16446C12.2472 5.16446 13.018 5.77719 14.0457 6.38992L15.2448 1.313C13.3606 0.700265 12.1616 0 10.1917 0C8.30754 0 7.19416 0.350133 5.90949 1.0504C4.62482 1.66313 4.0253 2.88859 3.59708 3.93899C3.16886 5.07692 2.91192 6.38992 2.91192 8.49072V9.27851H0.0856448L0 15.0557Z"/>
</svg>
