<svg version="1.1" xmlns="http://www.w3.org/2000/svg" x="0px" y="0px" viewBox="0 0 1699.4 2058.2">
<g id="men">
	<g id="man-1">
		<path fill="#FFEA5B" d="M614.7,361.7L576,485l16.7,56.7l23.3,60l14,58.7l22.7,108l87.3,82c0,0,163.3-6.7,164-8.7
			s61.3-110,61.3-110l23.3-119.3l-5.3-25.7l14.6-41l31.3-83.3l8-106.7L986,226.3L902,149l-219.3,92.7L614.7,361.7z"/>
		<path fill="#9B38AA" d="M594.7,762.3L479.3,817L400,847l-55.3,21.3l-54.7,18L276,913l-38,94l-38,104.7l-20,54.7l-9.3,30.7
			l-19.4,6.7l-18.7,10.7l-9.3,17.3l2,17.3l-1.3,14l-19.3,12l-24,18l-15.4,24l-8.7,28.7l-19.3,36.7l-26,63.3L0,1496.3l4.7,54.7
			l2.7,34.7l18.7,36l30,30l37.3,2l43.3-11.3H176l52-12c0,0,34.7-17.3,35.3-19.3c0.7-2,54.7-34.7,54.7-34.7l89.3-33.3l821.3,18
			l34-6.7l49.3,30.7l106.7,66.6l33.3,9.4l60-2l82.7-14.7c0,0,34.7-18.1,33-18.4c-1.7-0.3,14.3-34.3,14.3-34.3l24-65.3l3.3-84
			l-12.7-40.7l-27.3-38l-48.7-59.3l-6.7-24l8.7-22.7l-7.3-18l-22.7-16.7l-2.6-20.9l-10.1-14.4l-30.7-26l-21.3-66L1440.7,973
			l-42-94.7l-22.7-26l-72-30l-146.7-58.7L1000,685l-35.3,151.3L727.3,887L594.7,762.3z"/>
		<path fill="#00C994" d="M915.7,731l20-9.4l25-23.6l12-15l2,76l-180,323L647,2051c0,0-253,0-252-8c1-8,160.7-653,160.7-653l124-248
			l-12.5-191.5L622.7,741l33,8l50,28l20.3,26.2l17.7,13.8l27,5l60,2l35-5l17.8-11.1l11.2-28.9l16.9-38.6L915.7,731"/>
		<path fill="#721B7F" d="M983.4,586.7l-7.3,36l-6,86.7l-6.7,43.3l-24.7,62l-38,64l-44,62l-18.7,34l-20,42l-24,82l35.3-76l24-36
			l24-31.3c0,0,48-43.3,48.7-45.3s92.7-52.7,92.7-54.7s48.4-21.3,47.5-24.3c-0.9-3-17.5-39.7-18.2-41.7s-16.7-48.7-16.7-48.7l-10-40
			l-5.3-48l-1.3-28.7l-7.3-26.7l-9.3-18l-10.7-6.7L983.4,586.7"/>
		<polyline fill="#721B7F" points="549.7,766 580.7,738 604.1,706.2 620.7,675 626.7,643 636.7,687 649.7,746 667.7,839 675.7,897 
			683.7,961 687.7,1025 686.7,1083 677.7,1151 671.7,1074 662.7,1031 651.7,992 637.7,952 610.7,898 581.7,840 555.7,794 
			544.3,774.8 549.7,766 		"/>
		<path fill="#721B7F" d="M786,1121.3c0,0,22-14,38-17s75-11,75-11l122-2l76,7l86,15l50,5c0,0,58-8,63-9l40,3l-6,62l-2,59l-39,195
			l-15.7,153.7l0.7,171.3l14.3,287l-642,11c-1.3,5.9-8.1-152.6,17-268.3c1.3-5.9,8.7-80.7,8.7-80.7l16.7-114l20.7-112l26.7-121
			l22-106L786,1121.3z"/>
		<path fill="#721B7F" d="M671.7,1186l6-51l-6-61c0,0-27,0-48,4s-81,11-102,17s-48,12-67,4s-128-18-131-17s12,191,12,191l15,328
			l-22,145l-13,73L274,2041l123,8l116.7-343l52-156l31-94l45-154L671.7,1186"/>
		<path fill="#002D96" d="M1051.8,1319.3c-11.9,30.8-12.7,65.6-2.4,97c1.5,4.5,3.2,8.9,6.1,12.7c6.6,8.7,18.5,12.3,29.5,11.4
			c20.2-1.7,36.7-16,50.7-30.4c20.9-21.4,40.2-45,51.9-72.5c3.6-8.4,6.4-17.1,9.2-25.8c5-15.4,9.9-30.8,14.9-46.2
			c5-15.6,10.1-31.3,11.9-47.5c2.2-19.9-0.6-40.4-8.2-59c-1.3-3.3-2.8-6.5-5.3-9.1c-3.8-4.1-9.5-5.9-14.9-7.6
			c-4.7-1.5-9.7-3-14.5-1.9c-3.6,0.8-6.7,3-9.6,5.3c-10.7,8.5-19.3,19.3-27.5,30.2c-27,35.7-51.2,73.4-73.8,112"/>
		<path fill="#002D96" d="M403.3,1285.2c-2.3-14.3-7-28.2-13.8-41c-4.7-8.7-11-17.4-20.3-20.8c-11.4-4.2-24.7,1-33.1,9.8
			s-12.9,20.6-16.6,32.2c-23.4,73.4-21.9,154.5,4.1,227c6.4,17.7,14.7,39.4,30.5,49.6c13.6,8.8,31.7,10.8,47,5.5
			c15.3-5.3,27.9-20.8,35.1-35.3c6.2-12.4,8.6-26.3,10.1-40c2.3-20.6,3-41.3,3.8-62c0.8-24.3,1.5-49.4-7.9-71.8"/>
		<path fill="#721B7F" d="M1375.7,1224c11.7,1.2,27.9,5.3,34,15.4c8.5,14,24.2,30.1,29.3,45.6c-3.7-25.5-6.1-53.7,0.3-78.7
			c3.2-12.2,2.6-23.6,3.4-36.2c0.1-2.1,0.1-4.3-0.6-6.2c-0.9-2.6-2.9-4.6-4.5-6.8c-3.4-4.7-4.9-8.3-5.3-14.1c-0.3-4.5,6.3-29.9,4-34
			c-3.3-6-23.2,24-26,29.3C1407.2,1144.5,1364.1,1222.9,1375.7,1224z"/>
		<path fill="#721B7F" d="M1442.4,1288c31.4,41,97.4,43.5,122.9,88.7c2.3,4.1,5.1,8.9,9.7,9c2.2-17.4-7.9-33.8-19.2-46.8
			c-18.4-21.3-50.2-25.7-75.4-37.1c21.9-0.2,43.8-0.5,65.8-0.7c8.1-0.1,16.5-0.3,23.5-4.6c8-4.9,12.6-14.8,13-24.5
			c0.4-9.7-2.9-19.3-7.6-27.7c-4.7-8.5-12.2-16.7-21.6-16.8c-8.6-0.1-19.2,0.1-25.5,6.3c-12.1,11.9-19.8,17.4-31.9,29.3
			c10.6-20.5,20.3-28.2,30.9-48.6c3.7-7.2,7.5-15.6,4.7-23.2c-2.9-7.7-12-11.2-19.9-10.4c-11.2,1.2-21,9.1-27.5,18.7
			c-6.5,9.7-10.1,21-13.6,32.2c-1.7,5.6-5.1,12.4-10.6,11.8c-5.1-0.5-8.5-7.4-13.6-6.7c-4.1,0.5-6.1,5.5-6.9,9.7
			C1435.1,1269.1,1442.4,1288,1442.4,1288z"/>
		<path fill="#721B7F" d="M85.2,1351.5c-9-12,13.8-49.9,34.9-63.8c7-4.6,14.8-8.2,21.2-13.7c6.4-5.5,11.2-13.8,9.6-22.1
			c-1.2-6.3-6-12.6-3.6-18.5c3-7.3,13.3-6.9,21-5.1c17.9-49.7,40.3-97.7,66.8-143.4c2.6-4.5,7.1-9.6,11.9-7.6
			c8.6,21.6,2.1,45.8-4,68.2c-9.4,34.6-17.7,69.6-22.9,105.2c13.6-69.1,66.3-113.7,70.7-105.7c4.4,8.1-9.7,22.1-13.2,29.3
			c-5,10.3-10.3,20.6-15.8,30.6c-10.6,19.2-20.3,44-34.1,61.1c-8.4,10.4-17.9,14.9-29,22c-16.9,10.8-32.7,24.3-49,36
			C130.5,1337.8,94.2,1363.5,85.2,1351.5z"/>
		<path fill="none" stroke="#0000FF" stroke-width="10" stroke-miterlimit="10" d="M292.5,881.1c36-6,162.4-51,256.1-96"/>
		<path fill="none" stroke="#FF0F92" stroke-width="10" stroke-miterlimit="10" d="M624.5,628.3c36.1,171.5,78.4,344.3,55,518
			C658.7,1301.8,431.3,1934.5,397,2047"/>
		<path fill="none" stroke="#FF0F92" stroke-width="10" stroke-miterlimit="10" d="M623.9,631c-0.2,30.4-3,49.8-19.8,75.2
			c-16.8,25.4-38.2,47.2-59.8,68.6C583,840.5,621.4,907,647.7,978.6s34.8,147.1,22.6,222.4"/>
		<path fill="none" stroke="#0000FF" stroke-width="10" stroke-miterlimit="10" d="M990.5,573.7c43,32.6,0.3,89.8,75.7,257.3
			c-54.9,24.8-121.2,68.3-167.8,106.5c-46.6,38.2-79.7,98.1-103.2,153.5"/>
		<path fill="none" stroke="#0000FF" stroke-width="10" stroke-miterlimit="10" d="M651.9,749.7c25.3,4.7,41,22.1,63.3,34"/>
		<path fill="none" stroke="#0000FF" stroke-width="10" stroke-miterlimit="10" d="M971.9,677c-3.1,18.1-22.5,32.5-36.2,44.7
			c-11.4,10.1-14.3,16.6-25.8,26.7"/>
		<path fill="none" stroke="#0000FF" stroke-width="5" stroke-miterlimit="10" d="M410.9,1083.2c39.3,19.8,86.8,22.5,128.1,7.3"/>
		<path fill="none" stroke="#0000FF" stroke-width="5" stroke-miterlimit="10" d="M1277.7,1110c-51.8,10.9-105.1-2.1-157.3-10.7
			c-93.7-15.5-189.8-16.6-283.9-3.5"/>
		<path fill="none" stroke="#0000FF" stroke-width="10" stroke-miterlimit="10" d="M296.7,883c17.7,94.6,28.6,190.5,32.6,286.7"/>
		<path fill="none" stroke="#0000FF" stroke-width="10" stroke-miterlimit="10" d="M355.3,1559.7C331,1737.8,311.8,1870.5,273,2046"
			/>
		<path fill="none" stroke="#0000FF" stroke-width="10" stroke-miterlimit="10" d="M985.9,581.7c-15.4,46.2-11.6,96.1-18.5,144.4
			c-12.8,89.9-76,162.8-123.5,240.1C748.5,1121.4,632,1896.3,641,2044"/>
		<path fill="none" stroke="#0000FF" stroke-width="10" stroke-miterlimit="10" d="M1270.7,1555c-2.7,165.2-1.1,326.6,15.3,491"/>
		<path fill="none" stroke="#0000FF" stroke-width="10" stroke-miterlimit="10" d="M1326,1190.1c-0.7-107.1,16.5-229.4,63.3-325.7"
			/>
		<g>
			<g>
				<path fill="#FFEA5B" d="M198.4,1385.2l40.2-40.4l34.5-30.6l23.5-17.6l35.2-17.9l33.1-24.4c0,0,52.1-42.2,53.2-44.3
					c1.1-2.1,54.9-60,54.9-60s14.7-30.5,15.8-32.6c1.1-2.1,18.1-27,18.1-27l6.8-27.3l5.4-21.2l13-3.9l9.6,9.8l10.8-5.7l42.4-52.6
					l61.1-44.1l8.7,5.2l4.6,16.9l6.9-1.3l77.6-39.4l7.8,14.4l-6,28.2l-26.4,24.8l-26.1,9.4l-24.9,33.7l16.2-1.2l56.8,26.4
					c0,0,30.2,16.5,30.3,17.5s19.3,70.5,19.3,70.5l-4.4,6.1l-16.9-2.1c0,0-16.2-9.5-17-10.4c-0.8-0.9-15.4-25.2-15.4-25.2l-2.4-13.5
					l-29.1-2.6l-15.5-7.1l-4.2,13.6l-11.3,14.7l-19.8,13.2l-14.2,3.6l-11,29.4l-15.6,26.1l-11.5,23.4l-2.7,10.6l4.6,13.6l14.7,22.3
					l23,3.2l45.8,5.1l39.7,11.3l21.1,15.4l16.6,24.8l2.6,20.8l-4.7,13.4l-9.9,1.6l-18.8-8.9l-62.3-20.8l-63.2-8.8l-21.5,2l-7.7,10.1
					l-23,14.8l-26.6,7.8c0,0-24.6,8-25.6,8.4c-1,0.4-33.7,6.8-33.7,6.8l-41.2,8.8l-30.7,17.2l-23.8,16.6l-26.2,26.4l-19,25.4
					l-20.6,29.6l-29.9,39.8L198.4,1385.2z"/>
				<path fill="#00C994" d="M606.1,1231.1c8.6-41.8,50.9-59.8,37.3-98c-61.6,20.3-83,63.8-107.7,89.1c-18.7,19.2-7.9,28.2-61.8,50.3
					c-3.3,25-18.3,45.2-21.3,70.2C459.8,1340.2,478.8,1233.5,606.1,1231.1z"/>
				<path fill="none" stroke="#FF0F92" stroke-width="10" stroke-miterlimit="10" d="M470.8,1149.2
					c-19.6,32.7-107.7,111.6-148,131.6c-9.6,4.8-19.5,9.1-28.4,15c-7.3,4.9-13.9,10.9-20.4,16.8c-16.4,14.9-32.8,29.8-49.1,44.7"/>
				<path fill="none" stroke="#FF0F92" stroke-width="10" stroke-miterlimit="10" d="M648.2,1140.1c10.9-1.3,48-16.5,49.5-45.1"/>
				<path fill="none" stroke="#FF0F92" stroke-width="10" stroke-miterlimit="10" d="M298.4,1522.8c39.3-43,57.5-112.7,151.8-144.8
					c5.3-1.8,123.5-16.4,144.2-51.8c4.1-7,106.1,1.1,163.9,33.5c3.3,1.9,7.7,1.9,11.3,0.6c7.7-2.8,16-42.9-28.7-71.8
					c-24.4-15.7-82.1-18.9-111-21.6c-5.5-0.5-23.8-31.3-21.4-41c7.7-30.7,49.6-74.6,38.4-94.9"/>
				<path fill="none" stroke="#FF0F92" stroke-width="10" stroke-miterlimit="10" d="M662.9,1045.9c7.4-4.1,27.1-10.7,29.1-10.6
					c2,0.2,77.9,37.5,82,39.5c1.1,0.6,2.3,1.1,3.1,2.1c0.9,1.2,1.2,2.7,1.5,4.2c1.3,7,14.8,54.6,19.6,71.6
					c-1.2,5.4-20.4,1.6-26.8-1.5c-6-2.9-25.3-21.3-29-46.6c-19.5,2.2-44.9-2.8-55.1-22.2"/>
				<path fill="none" stroke="#0000FF" stroke-width="10" stroke-miterlimit="10" d="M619,1097.3c12-13.5,23.6-29.7,31.1-44.4
					c31.7-13.6,50.5-46.1,52.2-50.4C732,995,746.6,978.3,753,966c9.8-18.8,1.3-40-1.6-40c-14.2,8.9-58.7,31.5-83.3,43.9"/>
				<path fill="none" stroke="#0000FF" stroke-width="10" stroke-miterlimit="10" d="M521.1,1216.3c-8.6-23.2,6.1-49.5,0.6-73.7
					c-0.4-1.9-1-3.9-0.6-5.9c0.3-1.5,1.2-2.7,2.1-4c15-22.1,21.5-49.8,18-76.3c-0.7-5.4-1.9-11-5.5-15.1c-3.5-4.1-10-6.1-14.6-3.1
					c-3.7,2.5-5,7.2-5.9,11.6c-2.6,12.4-4.7,25-9.7,36.6c-8.1,18.8-23.5,33.9-31.3,52.8c-3.2,7.8-5,16-7.5,24
					c-6.2,19.7-16.4,37.8-26.5,55.7"/>
				<path fill="none" stroke="#0000FF" stroke-width="10" stroke-miterlimit="10" d="M539.9,1053.2c10.4-10,48.7-56.6,55-64.1
					c8.9-7.8,49.4-35.3,58.8-44.5c8.8,1.5,12,12.5,12.5,19.5c1.6,24.2-33.2,43.8-51.7,60.5c-2.1,8.1-25.2,54.7-45,67.9
					c-2.3,24.9-13.2,44.6-19.9,57.9"/>
				<path fill="none" stroke="#0000FF" stroke-width="5" stroke-miterlimit="10" d="M704.4,1000.4c-5.7,2.7-15.2-1.3-18.3-6.8"/>
				<path fill="none" stroke="#0000FF" stroke-width="5" stroke-miterlimit="10" d="M648.7,1053.2c-3.6,0.5-7.4-1.2-9.3-4.2"/>
				<path fill="none" stroke="#0000FF" stroke-width="5" stroke-miterlimit="10" d="M613.9,1023.2c-4.4,1.5-9.6,0.3-12.9-3"/>
				<path fill="none" stroke="#0000FF" stroke-width="5" stroke-miterlimit="10" d="M571.4,1089c-2.4,3.7-10.6,4.2-14.1,1.6"/>
				<path fill="none" stroke="#0000FF" stroke-width="5" stroke-miterlimit="10" d="M521.7,1134.1c-5.8,6.6-14.4,9.7-18.9,7.3"/>
				<path fill="none" stroke="#0000FF" stroke-width="5" stroke-miterlimit="10" d="M601.8,1095c7.6-3.9,17.9-0.9,22.2,6.5"/>
				<path fill="none" stroke="#0000FF" stroke-width="5" stroke-miterlimit="10" d="M471.2,1272.3c22.7-2,39.8-20.7,54.5-38.1
					c10.7-12.7,21.5-25.4,32.2-38.1c14.9-17.6,30.5-35.8,51.6-45.3"/>
			</g>
			<g>
				<g>
					<path fill="#FFEA5B" d="M1256.7,1458.6l-77.3-52.9l-51.6-41.6l-49.7-38.7l-11.4-6.7l-9-0.4l-29.3,1.9l-19.6-1.7l-25-8.4
						l-22.7-11l-13-5.5l-19.9-1.8l-21.3,2.4l-23.4,8.5l-31,14l-21.5,14.9l-26.3,17.2l-10.6,5.2l-8.7-3.4l-3.9-13.2l1.9-16.6
						l6.3-18.4l12.4-15.8l19.5-14.7l32.8-18.1l35.5-14.3l33.8-17.2l16.1-13l8.1-21.5l6.2-19.4l0.2-12.5l-7.1-16.5l-10.9-14.8
						l-7.8-5.5l-10.1-1.8l-16.5-8.9l-13.1-9.1l-12.4-13.7l-8.2-10.2l-12.3,9.1l-14.7,9.9l4.2,11.7l0.8,19.9l-4.5,14.8l-7.9,9.5
						l-9.5,6.6l-8.5,2.1l-5.9-9.2l-5.9-29.5l-9.5-38.8l5.4-9.3l20.2-26.8l18.6-20.7l14.7-10l16,0l31.4,7.4l28.4,15.1l29.5,22
						l11.5-11.7l0.1-13.5l-5.6-7.2l-14.2-12.9l-10.1-16.8l-9.9-21.8l-2-18l-18.5,1.9l-18.4,0.2l-18.3-4.8l-7.8-5l-15.6,13.5
						l-16.7,12.1l-17.4,1.6l-13.6-2.1l-10-8.3l-5.3-13.2l5.8-9.8l56.9-38.6l-8.1-9l-3.3-12.3l3.2-12.2l5.2-4.8l55.6,11.4l40.1,2.4
						l38.1,18l46.8,29.9l-5.3-12.6c0,0-10.3-20.8-10.4-22.3s-5.8-19.6-5.8-19.6l1.7-16.6l10.1-15.6l13.7-4.4l9.1,2.4
						c0,0,15.5,38.4,15.6,39.9c0.1,1.5,29,62,29,62l23,61.9l19.1,63.1l14.8,35.5l34.1,56.2l34.3,60.1l14.6,25.5l25.9,21.8l39.5,23.9
						l54.9,42.9L1256.7,1458.6z"/>
					<path fill="#00C994" d="M930.9,1112.5c0.8-18.5,36-76.3,46.9-68.9c9.6,6.5,15.2,34.4,68,49c0.3,32.7,30.2,89.3,52.2,119.8
						c3.2,4.4,6.8,23.7,8.1,29c0.8,3.2,0.3,6.6-0.3,9.9c-3.9,21.1-12.6,42.3-29,56.1C1111.9,1111.7,950.4,1190.5,930.9,1112.5z"/>
					<path fill="none" stroke="#FF0F92" stroke-width="10" stroke-miterlimit="10" d="M958.8,1059.3c-17.4-11.6-31.1-24.9-50-33.9
						c-18.9-8.9-34.5-10.7-55.4-10.7c-18.8,11.4-40.1,38.1-55.5,61.2c-0.9,1.3-1.7,2.7-2,4.3c-0.2,1.5,0.1,3,0.4,4.5
						c5.6,24.2,11.1,48.3,16.7,72.5c0.1,0.6,0.3,1.1,0.7,1.5c0.5,0.4,1.3,0.4,1.9,0.3c13.4-2,24.7-12.5,29.2-25.3
						c4.5-12.8,2.5-27.3-3.7-39.3c10.2-3.1,21.7-11.7,27-19c4,5.7,19.6,22.9,24.4,26.9c9.2,7.6,31.2,16.9,41.9,18.7"/>
					<path fill="none" stroke="#FF0F92" stroke-width="10" stroke-miterlimit="10" d="M928.2,1098.7c-2.3,18.8,20.4,41.9,24.4,48.3
						c8,12.7-8.8,54.8-15.2,63.5c-22,30-122.3,41.2-148.6,97.7c-4.9,10.6-10.5,37.6,2,46.8c7.6,5.5,34.7-19.2,46.1-26.9
						c23.6-15.9,70.5-42.4,111.2-34.5c13.1,2.6,53.1,36.6,116.6,23.7c5.4-1.1,182.5,142.1,190.1,144.4"/>
					<path fill="none" stroke="#0000FF" stroke-width="10" stroke-miterlimit="10" d="M1340.1,1329.4c-9-11.6-53.9-42.8-66.7-49.9
						c-9.5-5.2-43.4-29-48.9-37.5c-18.5-28.3-65.4-115.1-74.7-128.2c-18.5-26-25.9-58-35.7-88.4c-8.1-25-15.2-49.9-25.2-74.2
						c-8.5-20.7-29.9-67.9-34-75.8c-6.3-12-11.6-30.8-16.1-37.5c-7.1-2.1-22.3-2.5-31,19c-8.3,20.7,9.5,46.5,20.5,66.2
						c4.8,27.1,11,59.8,24.3,81.6c0.8,25.6-0.3,37.2,7.9,68.8"/>
					<path fill="none" stroke="#0000FF" stroke-width="10" stroke-miterlimit="10" d="M1015,1041.7c-19.2-24.4-28.7-72.8-28.7-76
						c0-2.5-49.8-25.5-64.2-48.5c-47.9,1.7-63.3-6.5-73.5-14.9c-12.1-9.9-11.9-24.3-4.1-34.7c6,0.6,37.9,7.6,41.5,8.4
						c5,1.1,56.2,4.2,60.8,6.6c32.1,16.3,63.7,27.8,75.1,45c4.7,7.1,9.6,16,12.3,25.1"/>
					<path fill="none" stroke="#0000FF" stroke-width="10" stroke-miterlimit="10" d="M948.8,1076.7c8.6-21.7,21.1-28,31.8-32.7"/>
					<path fill="none" stroke="#0000FF" stroke-width="10" stroke-miterlimit="10" d="M863.7,949.9c21.8,11.4,40.4,12.3,65,7.4
						c2.8,28.1,14,53.1,36.1,69.6c2.1,1.6,4.3,3.1,5.3,5.6c0.7,1.7,0.5,13.6,1.4,17.2"/>
					<path fill="none" stroke="#0000FF" stroke-width="5" stroke-miterlimit="10" d="M920.1,916c5.4-3.5,9-9.6,9.6-16"/>
					<path fill="none" stroke="#0000FF" stroke-width="5" stroke-miterlimit="10" d="M990,978.9c-1.9-9.2-1.7-18.9,0.5-28.1"/>
					<path fill="none" stroke="#0000FF" stroke-width="5" stroke-miterlimit="10" d="M1030.2,925.5c-0.6-4.4,2.9-9,7.4-9.4"/>
					<path fill="none" stroke="#0000FF" stroke-width="5" stroke-miterlimit="10" d="M1051.8,1002.4c5,5,13.5,6,19.6,2.4"/>
					<path fill="none" stroke="#0000FF" stroke-width="5" stroke-miterlimit="10" d="M1068.5,1315.8c15.1-12.4,27-29.1,32.8-47.6
						c5.8-18.7,4.5-39.6-3.9-57.3"/>
					<path fill="none" stroke="#0000FF" stroke-width="5" stroke-miterlimit="10" d="M955.3,1149c12.3-22.9,33.4-40.9,57.9-49.4"/>
				</g>
				<path fill="none" stroke="#0000FF" stroke-width="10" stroke-miterlimit="10" d="M855.3,906.3c-4.6,5.6-63.1,33.2-67.4,44.1
					c-1.7,10.3,5.9,28.9,36.5,25.6c9.1-1,37.5-14.6,49.5-32.5"/>
			</g>
		</g>
		<path fill="none" stroke="#0000FF" stroke-width="5" stroke-miterlimit="10" d="M86.5,1520.1c8-51,15.9-83.9,34.2-136
			c5.9-16.9,38.7-54,50.3-67.6"/>
		<path fill="none" stroke="#0000FF" stroke-width="5" stroke-miterlimit="10" d="M176.3,1441.5c5.3-30.8,3.8-57.6,10.8-86.9
			c6-25.2,22.8-49.4,38.9-69.7"/>
		<path fill="#9B38AA" d="M1216.8,1253.1c-7.1,33.4-21,65-37.2,95.1c-10.5,19.5-22.2,38.6-37.6,54.5c-17.5,18-39.5,31.5-63.5,38.9
			c5.4,9.8,18,12.4,28.7,15.5c54.7,15.6,92.7,65.5,144.4,89.2c10.4,4.8,21.3,8.5,31.5,13.7c8.2,4.2,16.3,9.6,25.6,10.3
			c10,0.7,19.8-4.5,26.7-11.9c6.9-7.4,11.2-16.7,14.8-26.1c9.8-25.8,14.9-53.2,18.3-80.5c4.4-35.2,6.3-70.6,5.7-106.1
			c-0.3-16.9-1.2-34-5.7-50.3c-3.6-13-9.4-25.2-15.1-37.3c-4.9-10.3-9.7-20.6-14.6-30.8c-2.1-4.3-4.1-8.7-7.3-12.3
			c-4.2-4.7-9.9-7.7-15.5-10.5c-17-8.8-34.1-17.5-51.1-26.3c-15.8-8.1-33.6-21-50.7-25.5c-1.9,5.4,3.6,17.1,4.7,23.3
			c1.5,8.6,2.4,17.3,2.7,26C1222.1,1218.9,1220.3,1236.2,1216.8,1253.1z"/>
		<path fill="none" stroke="#0000FF" stroke-width="5" stroke-miterlimit="10" d="M175.1,1228.6c28.8,0.8,37.5,26.4,43.6,42.7
			c-16.3-8.8-41-12.6-59.1-8.5"/>
		<path fill="none" stroke="#0000FF" stroke-width="10" stroke-miterlimit="10" d="M1171.3,1142.3c8.9-4.5,37.9,1.1,44.2,16.3
			c6.3,15.2,7.4,30.4,8,42c2.1,36.2-29.2,121.6-48.3,158.3c-20.5,39.4-82.3,92.1-110,79.6c-18-8.2-28.1-58.8-16.9-110.6"/>
		<path fill="none" stroke="#0000FF" stroke-width="10" stroke-miterlimit="10" d="M1201.3,1146.3c40.2,14.3,132.2,69.5,154.5,76.7
			s47.4,1.8,54.5,15.2c7.2,13.4,21.5,38.4,29.5,51.9s80,44.8,84.9,48.3c24.1,17,42,28.6,51,49.2"/>
		<path fill="none" stroke="#0000FF" stroke-width="5" stroke-miterlimit="10" d="M1564.2,1239.1c-39.1,4.3-75.5,43.6-90.8,64.3
			c5.6-29.3,19-54.8,38.6-77.3c2-2.3,4.6-4.7,7.6-4.1"/>
		<path fill="none" stroke="#0000FF" stroke-width="5" stroke-miterlimit="10" d="M1378.2,1210.2c12.2-40.7,33.6-78.5,62.3-109.8
			c-6,6.6-2.7,26.5-7.2,34.2"/>
		<path fill="none" stroke="#0000FF" stroke-width="5" stroke-miterlimit="10" d="M1442,1294c-12-60.7-3.3-88,8.9-113.8"/>
		<path fill="none" stroke="#0000FF" stroke-width="5" stroke-miterlimit="10" d="M1425.4,1268c-17.3,30-14,90.2-13,133.9
			c1,43.7,8.4,87.7,27.3,127.1"/>
		<path fill="#9B38AA" d="M304.1,1414.4c2.4,27,7.5,54,18.2,78.9c10.7,24.9,27.3,47.7,49.6,63.1c-13.2,3.6-26.5,7.2-39.7,10.8
			c-5,1.4-10,2.7-14.6,5.2c-6.7,3.7-11.8,9.6-17.5,14.8c-8.7,7.8-19,13.9-30,17.8c-4.6,1.6-10.1,2.8-14.2,0.1
			c-2.5-1.6-3.9-4.4-5.3-7c-38.8-77-41.8-143.5-57.6-228.3c-0.4-2.1,2.3-12.2,3.5-14c0.9-1.3,3.5-19.9,5-20.5
			c30.1-13.1,40.3-25.9,63.2-49.3c16.9-17.2,31.8-37.1,52.8-48.8c16-8.9,7.6,8.9,5,16.6c-4.3,12.7-7.9,25.5-10.8,38.6
			c-5.7,25.6-8.7,51.8-9.2,78.1C302.3,1385.1,302.8,1399.8,304.1,1414.4z"/>
		<path fill="none" stroke="#0000FF" stroke-width="10" stroke-miterlimit="10" d="M1022,695.7c96.4,64.6,326.8,136.2,363.4,165.2
			c21.2,16.8,78.4,175.4,126.6,304.4c3.9,10.4,32,18.1,38,36.8c6,18.8,1.7,23,11.1,26.4c9.4,3.4,22.2,20.5,22.2,32.4
			c0,11.9-12.8,31.6-7.7,37.5c5.1,6,77.6,92.1,85.3,116c23.9,74.3-4.6,165.3-33.3,211.5c-11.1,17.9-52,23.9-83.6,28.1
			c-31.6,4.3-91.3,17.1-125.4-2.6c-49.6-28.5-311.1-204.6-352-210.6"/>
		<path fill="none" stroke="#0000FF" stroke-width="10" stroke-miterlimit="10" d="M92.7,1381.4c22.6-29.9,61-51.5,70.3-59.9
			c19-17.2,144.5-74.5,181-94.5"/>
		<path fill="none" stroke="#0000FF" stroke-width="10" stroke-miterlimit="10" d="M383.5,1230.5c-19.5-12-48.5-23.5-70.8,53.8
			c-14.4,50-11.7,133.4,4.7,187.3c17.4,57.2,47.1,105.4,101.3,64.7c32.3-24.2,34.4-94.9,32.8-152.7"/>
		<path fill="none" stroke="#0000FF" stroke-width="10" stroke-miterlimit="10" d="M295.7,879.5c-29,35-116,282.5-125,317.5
			c-58,13-46.4,52.3-44.6,59.6c2.7,10.6-26.2,16.9-45.4,36.4c-14.1,14.3-16.9,39.1-28.7,61.2c-71.2,133.2-48.5,180.7-45.2,224.3
			c1.3,16.9,31.7,67.8,57,75.1c25.3,7.2,70.3-14.5,91.6-12c94.1,10.9,128-69.3,234-90.7"/>
		<g>
			<path fill="#001A86" d="M928.5,86.9c-1.4,49.3-3.2,100.5-26.1,144.2c-20.8,39.8-49.9,72.7-82.4,103.6c-25.4,24.2-24.9,28.9-57,43
				c-31.3,13.8-61.6,13.5-92,29c-38.8,19.8-104,88.5-101,132c-35.4-64.6-66.5-137-79.9-209.5c-13.3-72.5-4-152,40.2-211
				c19.2-25.6,44.1-46.4,71.1-63.5c20-12.6,41.4-23.4,64.3-29c21.1-5.2,43-5.9,64.5-9.3c34.7-5.5,68.7-18.1,103.7-16.2
				C849.8,1,866,5.1,878.5,14.9c11.9,9.3,19.6,22.9,26.9,36.2c7.7,13.8,15.3,27.7,23,41.5"/>
			<path fill="#002DA3" d="M942.9,89.1c23.4,4.4,43.9,19.5,58.7,38.2c14.8,18.7,29.7,40.8,37.4,63.4
				c27.9,81.4,28.6,170.3,11.9,254.7c-5.1,26-12.7,52.3-28.7,73.5c-3.2,4.2-8.5,8.5-13,5.9c12.4-38.2,14.7-79.7,6.6-119
				c-2.6-12.9-13.9-19.9-20.7-31.2c-15.9-26.4-48.9-41.7-65-68c-9.6-15.6-17.2-38.9-20-57c-4.9-31.5,6.2-64,5.7-96
				c-0.4-24.4,2.4-52.6,22.5-66.5c3.6-2.5,8.5-4.4,12.4-2.4"/>
			<path fill="#00C994" d="M609.3,573.2c25.1,47.2,40,99.2,64.2,146.9c3.9,7.6,8.2,15.4,15.5,20c-1.7-36.9-9.8-73.5-24-107.7
				c-3.4-8.3-7.2-16.5-12.3-23.8c-5.3-7.6-11.9-14.2-18.5-20.8c-4.8-4.8-9.6-9.6-14.5-14.4c-1.9-1.9-3.9-3.8-6.4-4.7
				c-2.5-0.9-5.8-0.4-7.2,1.9s0.2,6,2.9,5.8"/>
			<path fill="#00C994" d="M986.3,566.1c-10.5,3.4-22.3,10-28.7,18.9c-6.4,9-14,22.8-18,33c-15.5,39.2-18.5,81-28.3,121.1
				c11.5-18,19.9-37.9,28.1-57.7c11.1-26.7,22.2-53.3,33.3-80c4.7-11.4,12.8-23,16.7-34.8c0.1-0.4-0.1-0.8-0.5-0.8
				C987.2,565.8,986.3,566.1,986.3,566.1z"/>
			<path fill="none" stroke="#0000FF" stroke-width="10" stroke-miterlimit="10" d="M843.5,482.4c50.9-1.5,54.6-52.3,125.6-29"/>
			<path fill="none" stroke="#0000FF" stroke-width="10" stroke-miterlimit="10" d="M741.6,475.6c-32.4,16.6-86.2-22.7-130.7-13.7"
				/>
			<g>
				<path fill="none" stroke="#FF0F92" stroke-width="5" stroke-miterlimit="10" d="M848.8,514c21.1-15.1,44-30.9,69.9-31.1
					c13.6-0.1,27.2,4.1,40.7,2.3"/>
				<path fill="none" stroke="#FF0F92" stroke-width="10" stroke-miterlimit="10" d="M873.9,504.3c6.5,6.1,16.6,8.2,25,5.1
					c8.4-3.1,14.8-11.2,15.7-20.1"/>
			</g>
			<g>
				<path fill="none" stroke="#FF0F92" stroke-width="5" stroke-miterlimit="10" d="M735.7,510.2c-22.5-12.9-46.9-26.3-72.7-23.9
					c-13.6,1.2-26.6,6.8-40.2,6.3"/>
				<path fill="none" stroke="#FF0F92" stroke-width="10" stroke-miterlimit="10" d="M709.7,503.1c-5.9,6.8-15.7,9.8-24.4,7.6
					c-8.7-2.2-15.8-9.7-17.7-18.5"/>
			</g>
			<path fill="none" stroke="#FF0F92" stroke-width="5" stroke-miterlimit="10" d="M814.3,478.7c4.8,18,3.7,37.1,0.9,55.6
				c-2.8,18.5-7.3,36.7-9.2,55.2"/>
			<path fill="none" stroke="#FF0F92" stroke-width="5" stroke-miterlimit="10" d="M856.8,191.9c-21.1,32-57.9,50.2-94.7,61.2
				c-36.8,11-75.2,16.3-111,30.2c-35.8,13.9-70,38.5-83,74.6"/>
			<path fill="none" stroke="#FF0F92" stroke-width="5" stroke-miterlimit="10" d="M870.9,141.1c-17.3,26.7-50.3,38.7-81.8,43.8
				c-27,4.3-54.6,4.9-81.7,1.6c-12-1.4-24-3.6-35.9-1.8c-11.9,1.8-23.9,8.6-28.1,19.9"/>
			<path fill="none" stroke="#FF0F92" stroke-width="5" stroke-miterlimit="10" d="M931.2,202.7c11.4,22.6,26.3,43.4,43.8,61.7
				c10.3,10.7,21.6,20.6,28.9,33.5c10,17.7,11.4,38.9,11.5,59.2"/>
			<path fill="none" stroke="#FF0F92" stroke-width="5" stroke-miterlimit="10" d="M937.4,169.6c5.8-1.1,11.1,3.4,15.4,7.5
				c10.2,9.7,20.3,19.5,30.5,29.2"/>
			<path fill="none" stroke="#FF0F92" stroke-width="5" stroke-miterlimit="10" d="M945.3,150.5c3.9-6.1,11.2-9.8,18.4-9.3
				c7.2,0.4,14,4.9,17.3,11.4"/>
			<path fill="none" stroke="#FF0F92" stroke-width="5" stroke-miterlimit="10" d="M951.8,115.6c5.9-5.4,14.3-7.8,22.1-6.4"/>
			<path fill="none" stroke="#0000FF" stroke-width="10" stroke-miterlimit="10" d="M667,497.7c6.9-1.7,14-2.5,21.1-2.4"/>
			<path fill="none" stroke="#0000FF" stroke-width="10" stroke-miterlimit="10" d="M915.2,491.6c-3.8,0.6-7.6-0.3-11.4-0.4
				c-3.8-0.1-8.1,0.9-10.3,4"/>
			<path fill="none" stroke="#FF0F92" stroke-width="10" stroke-miterlimit="10" d="M776.4,491.6c-4.8,9.7-3.7,21.1-2.6,31.8
				c3.6,33.2,16.5,65,20.2,98.3"/>
			<path fill="none" stroke="#FF0F92" stroke-width="10" stroke-miterlimit="10" d="M758.6,604.2c-11.8,1.7-17,7.7-18.4,15.2
				c-1.8,9.5,3.7,21.7,21.9,23.5"/>
			<path fill="none" stroke="#FF0F92" stroke-width="10" stroke-miterlimit="10" d="M831.5,641.3c11.3,0,24.4-8.5,22.8-19.6
				c-1-7.1-9.5-15.2-18.4-13.8"/>
			<path fill="none" stroke="#0000FF" stroke-width="5" stroke-miterlimit="10" d="M761.2,635c7.8-0.8,15.1,8.5,16.4,10.2
				c5.5,7.1,14.9,10.9,23.8,9.6c6.8-1,13.1-5,17.2-10.6c1.2-1.7,10.2-10.8,15.9-9.2"/>
			<path fill="#FF0F92" d="M773,681.7c5.3-1.1,25.6,2.1,28,2.3c3.1,0.2,18.3-5.4,27-3.7c13.8,2.6,27.4,13.6,43.3,11.5
				c-7.4,16.4-15.7,26.5-31.1,28.8c-15.4,2.3-32-3.7-39.6-2.3c-17.5,3.2-29.7,5.2-43.1-0.4c-8.5-3.5-12.7-9.2-17.3-18
				C752.5,695.2,766.2,683,773,681.7z"/>
			<path fill="none" stroke="#0000FF" stroke-width="8" stroke-miterlimit="10" d="M723.7,699.5c7.6,1.3,16.9,4.3,24.6,4.4
				c17.5,0.2,35.9-6.3,53.5-6.6c10.7-0.2,20,2.1,30.7,3.2c17,1.9,51.1-3.9,69.8-19.2"/>
			<path fill="none" stroke="#00C994" stroke-width="8" stroke-miterlimit="10" d="M725.7,801.9c2.1-15.9,15.9-31.4,30-38.2
				c22-10.5,52.3-11,75.2-3.2"/>
			<path fill="none" stroke="#FF0F92" stroke-width="10" stroke-miterlimit="10" d="M931.1,89.4c-13.7-15.8-24.1-56.5-48.4-72
				c-12.5-8-27.9-8.9-42.6-9.7c-34.8-2-70.5-3.9-103.8,6.8c-16.7,5.4-32.4,13.8-49.2,18.8c-25.6,7.6-53.7,7.3-77.1,20.3
				c-13.3,7.4-24.2,18.7-34.6,30.1c-51.8,56.4-100.2,126.3-95.8,204.1c4,71.4,51.6,132.5,65.5,202.6c5.2,26.1,29.4,56.9,48.5,74.8"
				/>
			<path fill="none" stroke="#0000FF" stroke-width="10" stroke-miterlimit="10" d="M929.9,88.1c-3.9,22.7-7.9,45.3-11.8,68
				c-5,28.8-10,58-8.3,87.2c1.7,29.2,10.8,58.9,30.6,80.4c11.6,12.6,26.4,21.7,39.3,33c26,22.8,40.5,42.1,46.6,76.1"/>
			<path fill="none" stroke="#0000FF" stroke-width="10" stroke-miterlimit="10" d="M930.9,86.2c23.1,1.6,53.5,12.3,68.3,32.7
				c53.9,74.1,76.2,177.1,58.6,271.4c-8.8,47.3-26.9,91.6-45,135.3"/>
			<path fill="none" stroke="#0000FF" stroke-width="10" stroke-miterlimit="10" d="M581.7,505.3c1.4,5.9,2.9,11.8,4.5,17.7
				c13.7,48.3,37.6,92.9,58.1,138.7c18.6,41.4,74.8,128.7,85.6,144.8c12.7,19.1,139.9,23.3,153.3,0.1
				c9.7-16.8,45.8-103.4,64.4-144.8c20.6-45.8,44.4-90.4,58.1-138.7c18-63.5,17.7-130.5,17.2-196.5"/>
			<path fill="none" stroke="#FF0F92" stroke-width="10" stroke-miterlimit="10" d="M913.7,191.1c-10.7,51.1-57,105.1-91.4,143.3
				c-12.8,14.2-26.2,28.4-42.8,37.5c-27.5,15.1-60.2,14.7-89.9,24.3C641,411.7,588,485.1,568,533.4"/>
		</g>
	</g>
	<g id="man-36">
		<path fill="#9B38AA" d="M577.8,764.7L516.4,798l-99.3,40l-77.3,27.3L291.1,882l-12.7,22l-28.7,70.7l-43.3,97.3l-28,69.5l-8.5,30
			l-10,10l-20.5,11l-16,23l-1,27.8l2.7,15.3l-16,10.7c0,0-24.7,14.7-26,16.7c-1.3,2-21.7,21.5-21.7,21.5l-14.7,31.2l-13,43.3
			l-24,67.3l-8.7,43.3v37.3l4,32.7l2,18.7l8.7,21.3l17.3,26l22,18.7l18.7,7.3l33.3,2.7l45.3,2l25.3,1.3l32-8l48.7-19.3l96.5-79.3
			l912,34l51.5,29.5l65.3,35.8l46.2,23.2l19.5,6l24,3l53.5-4.5l51-7l33.5-10l21-11.5l16-24l15.5-29l11.5-31.5l8-52.5l-4.5-55
			l-13.5-38.5l-32-50.5l-38.2-56.6l1.2-20.9l-4-11.5l-4.5-15l-13-14l-9.5-13.5l-6-16.5l-1.7-24.8l-20.8-22.2l-10-23.5l-49.2-118.3
			L1423.1,902l-23.3-42.7l-19.3-14.7l-108-41.3l-76.7-27.3l-88.7-39.3l-52-23.3l-57.3-36L578.4,758"/>
		<path fill="#FFEA5B" d="M614.1,360.7L575.4,484l16.7,56.7l23.3,60l14,58.7l22.7,108l87.3,82c0,0,163.3-6.7,164-8.7
			c0.7-2,61.3-110,61.3-110l23.3-119.3l-5.3-25.7l14.6-41l31.3-83.3l8-106.7l-51.3-129.3l-84-77.3l-219.3,92.7L614.1,360.7z"/>
		<path fill="#00C994" d="M914.4,732l20-9.4l25-23.6l12-15l2,76l-180,323l-116.8,928.3c0,0-271-1-270-9S554.4,1391,554.4,1391
			l124-248l-12.5-191.5L621.4,742l33,8l50,28l20.3,26.2l17.7,13.8l27,5l60,2l35-5l17.8-11.1l11.2-28.9l16.9-38.6L914.4,732"/>
		<path fill="#721B7F" d="M983.1,584.7l-7.3,36l-6,86.7l-6.7,43.3l-24.7,62l-38,64l-44,62l-18.7,34l-20,42l-24,82l35.3-76l24-36
			l24-31.3c0,0,48-43.3,48.7-45.3c0.7-2,92.7-52.7,92.7-54.7s48.4-21.3,47.5-24.3c-0.9-3-17.5-39.7-18.2-41.7
			c-0.7-2-16.7-48.7-16.7-48.7l-10-40l-5.3-48l-1.3-28.7l-7.3-26.7l-9.3-18l-10.7-6.7L983.1,584.7"/>
		<polyline fill="#721B7F" points="549.4,764 580.4,736 603.9,704.2 620.4,673 626.4,641 636.4,685 649.4,744 667.4,837 675.4,895 
			683.4,959 687.4,1023 686.4,1081 677.4,1149 671.4,1072 662.4,1029 651.4,990 637.4,950 610.4,896 581.4,838 555.4,792 
			544.1,772.8 549.4,764 		"/>
		<path fill="#721B7F" d="M782.4,1116c0,0,22-14,38-17s75-11,75-11l122-2l76,7l86,15l50,5c0,0,58-8,63-9l28.7,4.7l-5.3,68.7l-4,48
			l-26.3,197.7l-15.7,153.7l0.7,171.3l11.2,259.3L646.4,2026l6-68c0,0,19-175,19-181s9-84,9-84l12-106l18-113l22-124l22-106
			L782.4,1116z"/>
		<path fill="#721B7F" d="M671.4,1184l6-51l-6-61c0,0-27,0-48,4s-81,11-102,17s-48,12-67,4s-128-18-131-17s12,191,12,191l15,328
			l-22,145l-13,73l-37.8,174.3l147,3l88.8-290.3l52-156l31-94l45-154L671.4,1184"/>
		<path fill="#721B7F" d="M1423.8,1292.5c34.6,23.5,101.7,43.5,128.4,88.7c2.4,4.1,5.4,8.9,10.1,9c2.3-17.4-8.3-33.8-20-46.8
			c-19.3-21.3-52.4-25.7-78.8-37.1c22.9-0.2,45.8-0.5,68.7-0.7c8.4-0.1,17.3-0.3,24.5-4.6c8.4-4.9,13.2-14.8,13.6-24.5
			s-3-19.3-7.9-27.7c-4.9-8.5-12.7-16.7-22.5-16.8c-9-0.1-20.1,0.1-26.6,6.3c-12.7,11.9-20.7,17.4-33.3,29.3
			c11.1-20.5,21.2-28.2,32.3-48.6c3.9-7.2,7.9-15.6,4.9-23.2c-3.1-7.7-12.5-11.2-20.8-10.4c-11.7,1.2-21.9,9.1-28.7,18.7
			s-10.5,21-14.2,32.2c-1.8,5.6-5.3,12.4-11.1,11.8c-5.3-0.5-8.9-7.4-14.2-6.7c-4.3,0.5-6.3,5.5-7.2,9.7
			C1416.2,1273.6,1423.8,1292.5,1423.8,1292.5z"/>
		<path fill="#721B7F" d="M85.6,1344.9c-9-12,13.8-49.9,34.9-63.8c7-4.6,20.3-2.2,26.6-7.7c6.4-5.5,5.8-19.8,4.2-28.1
			c-1.2-6.3-6-12.6-3.6-18.5c3-7.3,20.4-7.8,28.1-6c-7.3-20.7,33.2-96.8,59.8-142.5c2.6-4.5,7.1-9.6,11.9-7.6
			c8.6,21.6-9.6,55.7-15.7,78.1c-9.4,34.6-6.1,59.8-11.3,95.3c13.6-69.1,70.9-105.4,75.3-97.3c4.4,8.1-8.5,18.1-12,25.3
			c-5,10.3-13.1,21.3-18.7,31.3c-10.6,19.2-23.2,38.9-37,56c-8.4,10.4-17.9,14.9-29,22c-16.9,10.8-37.1,13-53.3,24.7
			C126.6,1319.8,94.6,1356.9,85.6,1344.9z"/>
		<path fill="#721B7F" d="M1440.5,1283.7c-0.2,4.8-1.8,10.5-6.5,11.6c-4.1,0.9-7.8-2.6-9.9-6.1c-2.1-3.6-3.6-7.8-7.1-10.1
			c-6-4.1-14.7-0.8-21-4.3c-6.4-3.6-7.3-12.2-7.8-19.5c-1.5-21.1-5.9-41.9-8-62.9s-1.7-42.9,6-62.5c0.3-0.8,9.3,9.4,9.9,10.4
			c2.7,4.4,4.4,9.4,5.7,14.4c2.6,9.7,6,17.4,9.1,27c6.4,19.9,14.1,41.1,21.5,60.7C1437.4,1255.5,1441.1,1269.4,1440.5,1283.7z"/>
		<path fill="none" stroke="#0000FF" stroke-width="10" stroke-miterlimit="10" d="M292.2,879.1c36-6,162.4-51,256.1-96"/>
		<path fill="none" stroke="#FF0F92" stroke-width="10" stroke-miterlimit="10" d="M624.3,626.4c36.1,171.5,78.3,344.3,55,518
			c-20.9,155.4-246.7,740.9-259.7,879.9"/>
		<path fill="none" stroke="#FF0F92" stroke-width="10" stroke-miterlimit="10" d="M623.6,629c-0.2,30.4-3,49.8-19.8,75.2
			c-16.8,25.4-38.2,47.2-59.8,68.6c38.7,65.7,77.1,132.2,103.3,203.8s34.8,147.1,22.6,222.4"/>
		<path fill="none" stroke="#0000FF" stroke-width="10" stroke-miterlimit="10" d="M990.3,571.7c43,32.6,0.3,89.8,75.7,257.3
			c-54.9,24.8-121.2,68.3-167.8,106.5c-46.6,38.2-79.7,98.1-103.2,153.5"/>
		<path fill="none" stroke="#0000FF" stroke-width="10" stroke-miterlimit="10" d="M651.6,747.7c25.3,4.7,41,22.1,63.3,34"/>
		<path fill="none" stroke="#0000FF" stroke-width="10" stroke-miterlimit="10" d="M971.6,675c-3.1,18.1-22.5,32.5-36.2,44.7
			c-11.4,10.1-14.3,16.6-25.8,26.7"/>
		<path fill="none" stroke="#0000FF" stroke-width="5" stroke-miterlimit="10" d="M353.8,1086.7c59.3-6,143.7,17.1,185,1.9"/>
		<path fill="none" stroke="#0000FF" stroke-width="5" stroke-miterlimit="10" d="M1277.5,1108.1c-51.8,10.9-105.1-2.1-157.3-10.7
			c-93.7-15.5-189.8-16.6-283.9-3.5"/>
		<path fill="none" stroke="#0000FF" stroke-width="10" stroke-miterlimit="10" d="M296.4,881c17.7,94.6,28.6,190.5,32.6,286.7"/>
		<path fill="none" stroke="#0000FF" stroke-width="10" stroke-miterlimit="10" d="M351.4,1558.5c-24.4,178.1-38,282.2-76.8,457.8"
			/>
		<path fill="none" stroke="#0000FF" stroke-width="10" stroke-miterlimit="10" d="M985.6,579.7c-15.4,46.2-11.6,96.1-18.5,144.4
			c-12.8,89.9-76,162.8-123.5,240.1c-95.4,155.2-194,922.1-195,1068.1"/>
		<path fill="none" stroke="#0000FF" stroke-width="10" stroke-miterlimit="10" d="M1268.4,1590c-2.7,165.2-0.3,280.9,16.2,445.3"/>
		<path fill="#002D96" d="M330.1,1190.7c-11.5,4.7-15.1,12.7-24.3,21c-19.9,17.8-23.7,49.5-25.2,76.1
			c-2.9,52.1,0.3,104.8,12.6,155.6c5,20.5,11.6,40.9,23.4,58.3c11.9,17.4,29.6,31.6,50.3,35.4c4,0.7,8.1,1.1,12.1,0.5
			c4.4-0.7,8.5-2.4,12.6-4.1c8.6-3.6,17.3-7.4,24.5-13.3c15.6-13,21.3-34.2,25-54.2c7.3-39.6,10.3-80,8.9-120.3
			c-1-27.9-4.2-56.1-14.5-82.1c-4.1-10.3-9.4-20.3-17.1-28.3c-5.4-5.7-11.9-10.3-18.4-14.8C380.8,1207,354.8,1180.5,330.1,1190.7z"
			/>
		<path fill="#002D96" d="M1070.1,1305.6c-5.9,7.9-11.8,15.8-16.4,24.5c-12.7,23.8-15,51.6-16,78.6c-0.8,22.3-0.8,45.4,7.9,66
			c3.2,7.6,7.8,14.8,14.6,19.4s16.2,6,23.3,2c6.1-3.5,9.6-10.2,15.1-14.6c4.2-3.3,9.4-5.2,14.2-7.6c16.9-8.4,29-23.9,39-39.8
			c34.2-54.6,49.7-119.8,49.9-184.2c0-10.6-0.3-21.3-3.4-31.4c-3.1-10.1-9.3-19.6-18.5-24.8c-27.9-15.6-43.3,19.9-56.2,38
			C1106,1256.6,1088.2,1281.2,1070.1,1305.6z"/>
		<g>
			<g>
				<path fill="#FFEA5B" d="M114.4,1391.5l42-42.2l36-31.9l24.5-18.3l36.8-18.7l34.5-25.5c0,0,54.4-44.1,55.5-46.3
					s57.3-62.6,57.3-62.6s15.3-31.9,16.5-34.1s18.9-28.2,18.9-28.2l7.1-28.5l5.6-22.1l13.5-4l10,10.2l11.3-5.9l44.3-55l63.8-46
					l9,5.5l4.8,17.7l7.2-1.4l81-41.1l8.1,15.1l-6.3,29.5l-27.5,25.9l-27.3,9.9l-26,35.1l16.9-1.2l59.3,27.5c0,0,31.5,17.2,31.6,18.3
					c0.1,1,20.1,73.7,20.1,73.7l-4.6,6.3l-17.6-2.2c0,0-16.9-9.9-17.7-10.9c-0.8-1-16-26.3-16-26.3l-2.5-14.1l-30.4-2.7l-16.2-7.4
					l-4.4,14.2l-11.8,15.4l-20.6,13.8l-14.9,3.8l-11.5,30.7l-16.2,27.3l-12,24.4l-2.8,11.1l4.8,14.2l15.4,23.3l24,3.3l47.8,5.3
					l41.5,11.8l22,16l17.4,25.9l2.7,21.7l-5,14l-10.3,1.7l-19.7-9.3l-65-21.8l-65.9-9.2l-22.4,2.1l-8.1,10.5l-24,15.5l-27.8,8.2
					c0,0-25.7,8.3-26.7,8.8c-1,0.4-35.2,7.1-35.2,7.1l-43,9.2l-32.1,18l-24.8,17.3l-27.4,27.6l-19.8,26.6l-21.5,30.9l-31.3,41.6
					L114.4,1391.5z"/>
				<path fill="#00C994" d="M540.1,1230.6c9-43.7,53.2-62.4,39-102.3c-64.3,21.2-86.7,66.6-112.4,93c-19.6,20-8.2,29.5-64.5,52.5
					c-11.5,18.1-23.1,44.3-22.2,73.3C387.4,1344.6,410.3,1267.3,540.1,1230.6z"/>
				<path fill="none" stroke="#FF0F92" stroke-width="10" stroke-miterlimit="10" d="M398.9,1145.1
					c-20.5,34.1-112.4,116.6-154.5,137.4c-10,5-20.3,9.5-29.6,15.7c-7.7,5.1-14.5,11.4-21.4,17.6c-17.1,15.6-34.2,31.1-51.3,46.7"/>
				<path fill="none" stroke="#FF0F92" stroke-width="10" stroke-miterlimit="10" d="M584.1,1135.6c11.4-1.3,50.1-17.2,51.7-47.1"/>
				<path fill="none" stroke="#FF0F92" stroke-width="10" stroke-miterlimit="10" d="M218.8,1535.2c41.1-44.9,60-117.7,158.5-151.3
					c5.6-1.9,128.9-17.1,150.5-54.1c4.3-7.3,110.8,1.1,171.1,35c3.5,2,8,2,11.8,0.6c8.1-3,16.7-44.8-29.9-74.9
					c-25.5-16.4-85.8-19.7-115.9-22.6c-5.8-0.5-24.9-32.7-22.3-42.8c8-32.1,51.8-77.9,40.1-99.1"/>
				<path fill="none" stroke="#FF0F92" stroke-width="10" stroke-miterlimit="10" d="M599.5,1037.2c7.7-4.3,28.3-11.2,30.4-11
					c2.1,0.2,81.4,39.2,85.6,41.3c1.2,0.6,2.4,1.2,3.2,2.2c1,1.2,1.3,2.8,1.6,4.3c1.4,7.3,15.5,57,20.5,74.8
					c-1.2,5.7-21.3,1.7-28-1.6c-6.3-3-26.4-22.2-30.3-48.7c-20.3,2.2-46.9-2.9-57.5-23.2"/>
				<path fill="none" stroke="#0000FF" stroke-width="10" stroke-miterlimit="10" d="M553.6,1090.9c12.5-14.1,24.7-31.1,32.4-46.4
					c33.1-14.2,52.8-48.2,54.5-52.6c31.1-7.9,46.3-25.3,53-38.1c10.2-19.7,1.4-41.8-1.6-41.8c-14.8,9.3-61.3,32.9-87,45.8"/>
				<path fill="none" stroke="#0000FF" stroke-width="10" stroke-miterlimit="10" d="M451.4,1215.2c-9-24.3,6.4-51.7,0.6-77
					c-0.5-2-1.1-4.1-0.6-6.1c0.3-1.5,1.3-2.8,2.1-4.1c15.6-23.1,22.5-52,18.8-79.7c-0.7-5.6-2-11.5-5.7-15.8
					c-3.7-4.3-10.5-6.4-15.2-3.3c-3.9,2.6-5.2,7.5-6.1,12.1c-2.7,12.9-4.9,26.1-10.1,38.2c-8.5,19.6-24.5,35.3-32.6,55.1
					c-3.3,8.1-5.3,16.7-7.9,25.1c-6.5,20.5-17.1,39.4-27.7,58.2"/>
				<path fill="none" stroke="#0000FF" stroke-width="10" stroke-miterlimit="10" d="M471,1044.9c10.9-10.4,50.9-59.1,57.4-67
					c9.3-8.2,51.6-36.8,61.4-46.5c9.2,1.6,12.6,13.1,13,20.4c1.7,25.3-34.7,45.7-54,63.2c-2.2,8.5-26.3,57.1-47,70.9
					c-2.4,26-13.8,46.5-20.8,60.4"/>
				<path fill="none" stroke="#0000FF" stroke-width="5" stroke-miterlimit="10" d="M642.8,989.7c-6,2.8-15.8-1.4-19.2-7.1"/>
				<path fill="none" stroke="#0000FF" stroke-width="5" stroke-miterlimit="10" d="M584.6,1044.8c-3.7,0.5-7.7-1.3-9.8-4.4"/>
				<path fill="none" stroke="#0000FF" stroke-width="5" stroke-miterlimit="10" d="M548.3,1013.5c-4.6,1.6-10,0.3-13.5-3.1"/>
				<path fill="none" stroke="#0000FF" stroke-width="5" stroke-miterlimit="10" d="M503.9,1082.2c-2.5,3.9-11,4.4-14.7,1.6"/>
				<path fill="none" stroke="#0000FF" stroke-width="5" stroke-miterlimit="10" d="M452.1,1129.3c-6.1,6.9-15,10.1-19.7,7.6"/>
				<path fill="none" stroke="#0000FF" stroke-width="5" stroke-miterlimit="10" d="M535.7,1088.5c7.9-4,18.7-0.9,23.2,6.8"/>
				<path fill="none" stroke="#0000FF" stroke-width="5" stroke-miterlimit="10" d="M399.3,1273.7c23.7-2.1,41.6-21.6,57-39.8
					c11.2-13.3,22.4-26.5,33.6-39.8c15.6-18.4,31.9-37.4,53.9-47.3"/>
			</g>
			<g>
				<g>
					<path fill="#FFEA5B" d="M1219.5,1468.1l-80.7-55.2l-53.9-43.4l-51.9-40.4l-11.9-7l-9.4-0.4l-30.6,2l-20.4-1.8l-26.1-8.7
						l-23.7-11.5l-13.6-5.8l-20.8-1.9l-22.2,2.5l-24.4,8.9l-32.4,14.6l-22.4,15.5l-27.5,17.9l-11.1,5.4l-9.1-3.6l-4-13.8l2-17.3
						l6.6-19.2l13-16.5l20.4-15.4l34.2-18.9l37.1-14.9l35.3-17.9l16.8-13.6l8.4-22.4l6.5-20.2l0.2-13l-7.4-17.2l-11.4-15.4l-8.2-5.7
						l-10.5-1.9l-17.3-9.3l-13.6-9.5l-12.9-14.3l-8.6-10.7l-12.8,9.5l-15.4,10.4l4.4,12.2l0.8,20.8l-4.7,15.4l-8.2,9.9l-10,6.9
						l-8.9,2.2l-6.2-9.6l-6.2-30.9l-9.9-40.5l5.6-9.7l21.1-27.9l19.4-21.6l15.4-10.4l16.8,0l32.8,7.8l29.7,15.8l30.8,23l12.1-12.2
						l0.1-14.1l-5.9-7.5l-14.8-13.5l-10.5-17.6l-10.3-22.8l-2.1-18.8l-19.3,2l-19.3,0.2l-19.1-5l-8.2-5.2l-16.3,14.1l-17.4,12.6
						l-18.1,1.7l-14.2-2.2l-10.5-8.7l-5.6-13.7l6.1-10.3l59.4-40.3l-8.4-9.4l-3.4-12.8l3.3-12.7l5.4-5l58.1,11.9l41.8,2.5l39.8,18.8
						l48.9,31.2l-5.5-13.2c0,0-10.8-21.7-10.9-23.3s-6-20.4-6-20.4l1.8-17.3l10.6-16.3l14.3-4.6l9.5,2.5c0,0,16.1,40.1,16.2,41.7
						s30.2,64.7,30.2,64.7l24,64.6l19.9,65.9l15.4,37l35.6,58.6l35.9,62.8l15.3,26.6l27,22.7l41.2,24.9l57.4,44.8L1219.5,1468.1z"/>
					<path fill="#00C994" d="M879.3,1106.7c0.8-19.3,37.6-79.7,49-71.9c10,6.8,15.9,36,71,51.1c-7.6,55.4,31.6,93.3,54.5,125.1
						c3.3,4.6,7.1,24.8,8.4,30.3c0.8,3.4,0.3,6.9-0.4,10.3c-4.1,22.1-13.1,44.2-30.3,58.6C990.3,1035.3,899.7,1188.2,879.3,1106.7z"
						/>
					<path fill="none" stroke="#FF0F92" stroke-width="10" stroke-miterlimit="10" d="M908.4,1051.2c-18.1-12.1-32.5-26-52.2-35.4
						c-19.7-9.3-36-11.2-57.9-11.2c-19.6,11.9-41.9,39.8-57.9,63.9c-0.9,1.4-1.8,2.8-2.1,4.5c-0.3,1.6,0.1,3.2,0.5,4.7
						c5.8,25.2,11.6,50.5,17.5,75.7c0.1,0.6,0.3,1.2,0.8,1.6c0.5,0.4,1.3,0.4,2,0.3c14-2.1,25.8-13.1,30.5-26.4
						c4.7-13.3,2.6-28.5-3.8-41c10.7-3.2,22.6-12.2,28.2-19.8c4.2,6,20.5,23.9,25.5,28c9.6,8,32.6,17.6,43.7,19.6"/>
					<path fill="none" stroke="#FF0F92" stroke-width="10" stroke-miterlimit="10" d="M876.5,1092.3c-2.4,19.6,21.3,43.7,25.5,50.4
						c8.4,13.2-9.2,57.2-15.9,66.4c-22.9,31.3-127.8,43-155.2,102.1c-5.1,11-11,39.3,2.1,48.8c7.9,5.8,36.2-20.1,48.2-28.1
						c24.7-16.6,73.6-44.3,116.1-36c13.7,2.7,55.4,38.2,121.8,24.7c5.7-1.2,190.6,148.4,198.5,150.8"/>
					<path fill="none" stroke="#0000FF" stroke-width="10" stroke-miterlimit="10" d="M1306.6,1333.3c-9.4-12.1-56.2-44.7-69.7-52.1
						c-9.9-5.5-45.3-30.3-51.1-39.1c-19.3-29.5-68.3-120.2-78-133.8c-19.3-27.2-27-60.6-37.3-92.3c-8.5-26.1-15.9-52.1-26.3-77.4
						c-8.9-21.6-31.2-70.9-35.5-79.1c-6.6-12.6-12.2-32.2-16.8-39.2c-7.4-2.2-23.3-2.6-32.4,19.8c-8.7,21.6,9.9,48.6,21.5,69.1
						c5,28.3,11.5,62.4,25.3,85.3c0.8,26.7-0.3,38.8,8.3,71.9"/>
					<path fill="none" stroke="#0000FF" stroke-width="10" stroke-miterlimit="10" d="M967.1,1032.8c-20.1-25.4-29.9-76-30-79.3
						c0-2.6-52-26.6-67-50.7c-50,1.7-66.1-6.8-76.7-15.5c-12.6-10.3-12.4-25.4-4.3-36.2c6.3,0.6,39.6,7.9,43.3,8.8
						c5.3,1.2,58.7,4.4,63.5,6.9c33.5,17,66.5,29,78.4,47c4.9,7.4,10,16.8,12.8,26.3"/>
					<path fill="none" stroke="#0000FF" stroke-width="10" stroke-miterlimit="10" d="M898,1069.4c9-22.7,22.1-29.2,33.2-34.1"/>
					<path fill="none" stroke="#0000FF" stroke-width="10" stroke-miterlimit="10" d="M809.2,936.9c22.7,11.9,42.2,12.9,67.9,7.8
						c2.9,29.3,14.6,55.5,37.7,72.7c2.2,1.6,4.5,3.3,5.6,5.8c0.7,1.8,0.6,14.2,1.5,18"/>
					<path fill="none" stroke="#0000FF" stroke-width="5" stroke-miterlimit="10" d="M868,901.6c5.6-3.7,9.4-10,10-16.7"/>
					<path fill="none" stroke="#0000FF" stroke-width="5" stroke-miterlimit="10" d="M941.1,967.3c-2-9.7-1.8-19.7,0.5-29.3"/>
					<path fill="none" stroke="#0000FF" stroke-width="5" stroke-miterlimit="10" d="M983,911.4c-0.7-4.6,3.1-9.4,7.7-9.9"/>
					<path fill="none" stroke="#0000FF" stroke-width="5" stroke-miterlimit="10" d="M1005.5,991.7c5.3,5.2,14.1,6.3,20.5,2.5"/>
					<path fill="none" stroke="#0000FF" stroke-width="5" stroke-miterlimit="10" d="M1023,1319.1c15.8-13,28.2-30.4,34.3-49.8
						c6.1-19.5,4.7-41.4-4.1-59.8"/>
					<path fill="none" stroke="#0000FF" stroke-width="5" stroke-miterlimit="10" d="M904.8,1144.9c12.8-23.9,34.9-42.7,60.5-51.6"
						/>
				</g>
				<path fill="none" stroke="#0000FF" stroke-width="10" stroke-miterlimit="10" d="M800.3,891.4c-4.9,5.9-65.8,34.7-70.4,46.1
					c-1.7,10.7,6.1,30.1,38.1,26.7c9.5-1,39.2-15.2,51.6-34"/>
			</g>
		</g>
		<path fill="#9B38AA" d="M112.4,1496.7c0,2,48.7,106.7,48.7,106.7l112-36.7c0,0,55.3,4,56,2c0.7-2,49.3-28,49.3-28l-25.3-3.3
			l-18-13.3l-21.3-22.7l-15.7-41.4c0,0-15.6-167.9-15.6-169.9s6.6-51.7,6.6-51.7l-9.9-0.9l-35.3,20l-48.7,22l-43.7,27.7
			c0,0-39,29.7-40.3,33c-1.3,3.3-37.3,64.7-37.3,64.7L112.4,1496.7z"/>
		<path fill="#9B38AA" d="M1375.8,1295.4c0,2-45.3,323.3-45.3,323.3l-72-35.3l-73.3-37.3l-80-36l-29.3-12l19.3-9.3l20-14l18-18.7
			l18.7-25.3c0,0,36.7-67.3,36.7-69.3s12-62,12-64s3-52,3-52l-15-46.6h11.3l32,14.7l108,49.3L1375.8,1295.4z"/>
		<path fill="none" stroke="#0000FF" stroke-width="10" stroke-miterlimit="10" d="M1019.4,689c101,76,338,137.7,376.4,167.2
			c22.5,17.3,86,177.3,136.6,312.5c4.1,10.9,25.6,20.7,27,41.3c3,43,30,36,33,72c1,12.5,10.6,48.7,16,55c5.4,6.3,58,80,66,105
			c25,77.8-2.6,150.8-32.7,199.3c-11.6,18.8-44.3,30.2-77.3,34.7c-33.1,4.5-99.2,20.6-135,0c-52-29.9-322.1-174.4-365-180.7"/>
		<path fill="none" stroke="#0000FF" stroke-width="10" stroke-miterlimit="10" d="M1316.4,1180.7c-0.7-107.1,36.3-226.8,83-323.2"
			/>
		<path fill="none" stroke="#0000FF" stroke-width="10" stroke-miterlimit="10" d="M295.4,877.5c-29,35-118.7,265.5-127.7,300.5
			c-69,29-41.3,67-46.3,79c-4.2,10.1-28.8,16.5-48,36c-14.1,14.3-25,41.9-35,65c-56,130-35.3,174.9-32,218.6
			c1.3,16.9,31.7,67.8,57,75.1c25.3,7.2,72.7,6.6,94.1,9c94.1,10.9,140.4-91.2,238.4-126.7"/>
		<path fill="none" stroke="#0000FF" stroke-width="10" stroke-miterlimit="10" d="M351.1,1191.7c-14-15.3-52.2,15.8-62.1,46.6
			s-7.6,164.8,9.1,221.6c18.9,64.1,66.8,104.3,116.4,63.6c29.8-24.5,42.2-91.9,34.2-148.7"/>
		<path fill="none" stroke="#0000FF" stroke-width="10" stroke-miterlimit="10" d="M84.4,1368c22.6-29.9,57.3-53,67-61
			c46.3-38.3,107.7-41.7,149.7-91.7"/>
		<path fill="none" stroke="#0000FF" stroke-width="5" stroke-miterlimit="10" d="M81.1,1504.7c-1.3-62,4.3-73.9,22.7-126
			c5.9-16.9,38.5-59.7,50.1-73.4"/>
		<path fill="none" stroke="#0000FF" stroke-width="5" stroke-miterlimit="10" d="M156.4,1420.7c5.3-30.8,11.9-49.2,18.9-78.4
			c6-25.2,22.8-49.4,38.9-69.7"/>
		<path fill="none" stroke="#0000FF" stroke-width="5" stroke-miterlimit="10" d="M184.8,1212.4c26.6,11,24.1,36.5,25.5,55.5
			c-12.1-14-33.8-26.4-52.2-29"/>
		<path fill="none" stroke="#0000FF" stroke-width="10" stroke-miterlimit="10" d="M1159.7,1190.4c8.6-5.1,25-1,32.4,13.6
			c7.4,14.7,9.7,29.8,11.3,41.3c4.9,35.9-19.7,123.5-35.9,161.5c-17.4,40.8-74.9,98.2-103.5,87.9c-23-8.3-45.6-99.1-16.1-147.5"/>
		<path fill="none" stroke="#0000FF" stroke-width="10" stroke-miterlimit="10" d="M1178.4,1191c40.2,14.3,145,66.5,167.3,73.7
			c22.4,7.2,69.6,6.3,74.7,20.7c8.8,24.7,30.7,15.3,42.7,28.7c24.9,27.7,67.3,18.7,92.7,78.7"/>
		<path fill="none" stroke="#0000FF" stroke-width="5" stroke-miterlimit="10" d="M1545.9,1258.6c-39.1,4.3-70.8,52.9-86.2,51.6
			c5.6-29.3,7.8-46.2,27.3-68.7c2-2.3,11-12,14-11.3"/>
		<path fill="none" stroke="#0000FF" stroke-width="5" stroke-miterlimit="10" d="M1388.6,1259.1c-5-42.1-14.1-89.3-0.2-129.4
			c5.2-8.1,22.7,42.8,21.6,51.7"/>
		<path fill="none" stroke="#0000FF" stroke-width="5" stroke-miterlimit="10" d="M1445.8,1274.7c-12-60.7-3.3-88,8.9-113.8"/>
		<path fill="none" stroke="#0000FF" stroke-width="5" stroke-miterlimit="10" d="M1406.4,1289.2c-16.2,74.3-14.4,152.5,5.3,226"/>
		<g>
			<path fill="#001A86" d="M927.9,85.9c-1.4,49.3-3.2,100.5-26.1,144.2c-20.8,39.8-49.9,72.7-82.4,103.6c-25.4,24.2-24.9,28.9-57,43
				c-31.3,13.8-61.6,13.5-92,29c-38.8,19.8-104,88.5-101,132c-35.4-64.6-66.5-137-79.9-209.5c-13.3-72.5-4-152,40.2-211
				c19.2-25.6,44.1-46.4,71.1-63.5c20-12.6,41.4-23.4,64.3-29c21.1-5.2,43-5.9,64.5-9.3c34.7-5.5,68.7-18.1,103.7-16.2
				C849.2,0,865.4,4.1,878,13.9c11.9,9.3,19.6,22.9,26.9,36.2c7.7,13.8,15.3,27.7,23,41.5"/>
			<path fill="#002DA3" d="M942.3,88.1c23.4,4.4,43.9,19.5,58.7,38.2c14.8,18.7,29.7,40.8,37.4,63.4
				c27.9,81.4,28.6,170.3,11.9,254.7c-5.1,26-12.7,52.3-28.7,73.5c-3.2,4.2-8.5,8.5-13,5.9c12.4-38.2,14.7-79.7,6.6-119
				c-2.6-12.9-13.9-19.9-20.7-31.2c-15.9-26.4-48.9-41.7-65-68c-9.6-15.6-17.2-38.9-20-57c-4.9-31.5,6.2-64,5.7-96
				c-0.4-24.4,2.4-52.6,22.5-66.5c3.6-2.5,8.5-4.4,12.4-2.4"/>
			<path fill="#00C994" d="M608.7,572.2c25.1,47.2,40,99.2,64.2,146.9c3.9,7.6,8.2,15.4,15.5,20c-1.7-36.9-9.8-73.5-24-107.7
				c-3.4-8.3-7.2-16.5-12.3-23.8c-5.3-7.6-11.9-14.2-18.5-20.8c-4.8-4.8-9.6-9.6-14.5-14.4c-1.9-1.9-3.9-3.8-6.4-4.7
				s-5.8-0.4-7.2,1.9s0.2,6,2.9,5.8"/>
			<path fill="#00C994" d="M985.8,565.1c-10.5,3.4-22.3,10-28.7,18.9c-6.4,9-14,22.8-18,33c-15.5,39.2-18.5,81-28.3,121.1
				c11.5-18,19.9-37.9,28.1-57.7c11.1-26.7,22.2-53.3,33.3-80c4.7-11.4,12.8-23,16.7-34.8c0.1-0.4-0.1-0.8-0.5-0.8
				C986.7,564.8,985.8,565.1,985.8,565.1z"/>
			<path fill="none" stroke="#0000FF" stroke-width="10" stroke-miterlimit="10" d="M842.9,481.4c50.9-1.5,54.6-52.3,125.6-29"/>
			<path fill="none" stroke="#0000FF" stroke-width="10" stroke-miterlimit="10" d="M741.1,474.6c-32.4,16.6-86.2-22.7-130.7-13.7"
				/>
			<g>
				<path fill="none" stroke="#FF0F92" stroke-width="5" stroke-miterlimit="10" d="M848.2,513c21.1-15.1,44-30.9,69.9-31.1
					c13.6-0.1,27.2,4.1,40.7,2.3"/>
				<path fill="none" stroke="#FF0F92" stroke-width="10" stroke-miterlimit="10" d="M873.4,503.3c6.5,6.1,16.6,8.2,25,5.1
					c8.4-3.1,14.8-11.2,15.7-20.1"/>
			</g>
			<g>
				<path fill="none" stroke="#FF0F92" stroke-width="5" stroke-miterlimit="10" d="M735.2,509.2c-22.5-12.9-46.9-26.3-72.7-23.9
					c-13.6,1.2-26.6,6.8-40.2,6.3"/>
				<path fill="none" stroke="#FF0F92" stroke-width="10" stroke-miterlimit="10" d="M709.2,502.1c-5.9,6.8-15.7,9.8-24.4,7.6
					s-15.8-9.7-17.7-18.5"/>
			</g>
			<path fill="none" stroke="#FF0F92" stroke-width="5" stroke-miterlimit="10" d="M813.7,477.7c4.8,18,3.7,37.1,0.9,55.6
				s-7.3,36.7-9.2,55.2"/>
			<path fill="none" stroke="#FF0F92" stroke-width="5" stroke-miterlimit="10" d="M856.3,190.9c-21.1,32-57.9,50.2-94.7,61.2
				c-36.8,11-75.2,16.3-111,30.2c-35.8,13.9-70,38.5-83,74.6"/>
			<path fill="none" stroke="#FF0F92" stroke-width="5" stroke-miterlimit="10" d="M870.3,140.1c-17.3,26.7-50.3,38.7-81.8,43.8
				c-27,4.3-54.6,4.9-81.7,1.6c-12-1.4-24-3.6-35.9-1.8c-11.9,1.8-23.9,8.6-28.1,19.9"/>
			<path fill="none" stroke="#FF0F92" stroke-width="5" stroke-miterlimit="10" d="M930.6,201.7c11.4,22.6,26.3,43.4,43.8,61.7
				c10.3,10.7,21.6,20.6,28.9,33.5c10,17.7,11.4,38.9,11.5,59.2"/>
			<path fill="none" stroke="#FF0F92" stroke-width="5" stroke-miterlimit="10" d="M936.9,168.6c5.8-1.1,11.1,3.4,15.4,7.5
				c10.2,9.7,20.3,19.5,30.5,29.2"/>
			<path fill="none" stroke="#FF0F92" stroke-width="5" stroke-miterlimit="10" d="M944.8,149.5c3.9-6.1,11.2-9.8,18.4-9.3
				c7.2,0.4,14,4.9,17.3,11.4"/>
			<path fill="none" stroke="#FF0F92" stroke-width="5" stroke-miterlimit="10" d="M951.2,114.6c5.9-5.4,14.3-7.8,22.1-6.4"/>
			<path fill="none" stroke="#0000FF" stroke-width="10" stroke-miterlimit="10" d="M666.4,496.7c6.9-1.7,14-2.5,21.1-2.4"/>
			<path fill="none" stroke="#0000FF" stroke-width="10" stroke-miterlimit="10" d="M914.7,490.6c-3.8,0.6-7.6-0.3-11.4-0.4
				c-3.8-0.1-8.1,0.9-10.3,4"/>
			<path fill="none" stroke="#FF0F92" stroke-width="10" stroke-miterlimit="10" d="M775.8,490.6c-4.8,9.7-3.7,21.1-2.6,31.8
				c3.6,33.2,16.5,65,20.2,98.3"/>
			<path fill="none" stroke="#FF0F92" stroke-width="10" stroke-miterlimit="10" d="M758,603.2c-11.8,1.7-17,7.7-18.4,15.2
				c-1.8,9.5,3.7,21.7,21.9,23.5"/>
			<path fill="none" stroke="#FF0F92" stroke-width="10" stroke-miterlimit="10" d="M830.9,640.3c11.3,0,24.4-8.5,22.8-19.6
				c-1-7.1-9.5-15.2-18.4-13.8"/>
			<path fill="none" stroke="#0000FF" stroke-width="5" stroke-miterlimit="10" d="M760.7,634c7.8-0.8,15.1,8.5,16.4,10.2
				c5.5,7.1,14.9,10.9,23.8,9.6c6.8-1,13.1-5,17.2-10.6c1.2-1.7,10.2-10.8,15.9-9.2"/>
			<path fill="#FF0F92" d="M772.4,680.7c5.3-1.1,25.6,2.1,28,2.3c3.1,0.2,18.3-5.4,27-3.7c13.8,2.6,27.4,13.6,43.3,11.5
				c-7.4,16.4-15.7,26.5-31.1,28.8c-15.4,2.3-32-3.7-39.6-2.3c-17.5,3.2-29.7,5.2-43.1-0.4c-8.5-3.5-12.7-9.2-17.3-18
				C752,694.2,765.6,682,772.4,680.7z"/>
			<path fill="none" stroke="#0000FF" stroke-width="8" stroke-miterlimit="10" d="M723.1,698.5c7.6,1.3,16.9,4.3,24.6,4.4
				c17.5,0.2,35.9-6.3,53.5-6.6c10.7-0.2,20,2.1,30.7,3.2c17,1.9,51.1-3.9,69.8-19.2"/>
			<path fill="none" stroke="#00C994" stroke-width="8" stroke-miterlimit="10" d="M725.1,800.9c2.1-15.9,15.9-31.4,30-38.2
				c22-10.5,52.3-11,75.2-3.2"/>
			<path fill="none" stroke="#FF0F92" stroke-width="10" stroke-miterlimit="10" d="M930.5,88.4c-13.7-15.8-24.1-56.5-48.4-72
				c-12.5-8-27.9-8.9-42.6-9.7c-34.8-2-70.5-3.9-103.8,6.8c-16.7,5.4-32.4,13.8-49.2,18.8c-25.6,7.6-53.7,7.3-77.1,20.3
				c-13.3,7.4-24.2,18.7-34.6,30.1c-51.8,56.4-100.2,126.3-95.8,204.1c4,71.4,51.6,132.5,65.5,202.6c5.2,26.1,29.4,56.9,48.5,74.8"
				/>
			<path fill="none" stroke="#0000FF" stroke-width="10" stroke-miterlimit="10" d="M929.3,87.1c-3.9,22.7-7.9,45.3-11.8,68
				c-5,28.8-10,58-8.3,87.2s10.8,58.9,30.6,80.4c11.6,12.6,26.4,21.7,39.3,33c26,22.8,40.5,42.1,46.6,76.1"/>
			<path fill="none" stroke="#0000FF" stroke-width="10" stroke-miterlimit="10" d="M930.3,85.2c23.1,1.6,53.5,12.3,68.3,32.7
				c53.9,74.1,76.2,177.1,58.6,271.4c-8.8,47.3-26.9,91.6-45,135.3"/>
			<path fill="none" stroke="#0000FF" stroke-width="10" stroke-miterlimit="10" d="M581.1,504.3c1.4,5.9,2.9,11.8,4.5,17.7
				c13.7,48.3,37.6,92.9,58.1,138.7c18.6,41.4,74.8,128.7,85.6,144.8c12.7,19.1,139.9,23.3,153.3,0.1
				c9.7-16.8,45.8-103.4,64.4-144.8c20.6-45.8,44.4-90.4,58.1-138.7c18-63.5,17.7-130.5,17.2-196.5"/>
			<path fill="none" stroke="#FF0F92" stroke-width="10" stroke-miterlimit="10" d="M913.1,190.1c-10.7,51.1-57,105.1-91.4,143.3
				c-12.8,14.2-26.2,28.4-42.8,37.5c-27.5,15.1-60.2,14.7-89.9,24.3c-48.5,15.6-101.5,88.9-121.5,137.3"/>
		</g>
	</g>
</g>
</svg>
