<svg width="33" height="27" viewBox="0 0 33 27" fill="none" xmlns="http://www.w3.org/2000/svg">
<path d="M31.2603 0.437666C29.9757 1.22546 28.6054 1.75066 27.0637 2.1008C25.8647 0.787798 24.1518 1.66956e-07 22.2676 1.66956e-07C18.5849 1.66956e-07 15.673 2.97613 15.673 6.74005C15.673 7.26525 15.7586 7.79045 15.8443 8.31565C10.363 8.05305 5.48127 5.33952 2.22676 1.313C1.62725 2.27586 1.37032 3.50133 1.37032 4.72679C1.37032 7.09019 2.56934 9.10345 4.28223 10.3289C3.16885 10.3289 2.14111 9.97878 1.28467 9.45358V9.54111C1.28467 12.7798 3.59709 15.4934 6.59465 16.1061C6.08078 16.2812 5.48127 16.3687 4.88176 16.3687C4.45353 16.3687 4.02531 16.3687 3.59709 16.2812C4.45353 18.9947 6.85158 20.9204 9.76351 20.9204C7.53674 22.7586 4.62481 23.809 1.5416 23.809C1.02773 23.809 0.513863 23.809 -5.22734e-06 23.7215C2.91192 25.6472 6.42336 26.7851 10.1061 26.7851C22.2676 26.7851 28.9479 16.5438 28.9479 7.61538C28.9479 7.35278 28.9479 7.00265 28.9479 6.74005C30.2326 5.77719 31.346 4.63926 32.2024 3.23873C31.0034 3.76393 29.7187 4.11406 28.4341 4.28912C29.7187 3.32626 30.8321 2.01326 31.2603 0.437666Z"/>
</svg>
