<svg width="42" height="24" viewBox="0 0 42 24" fill="none" xmlns="http://www.w3.org/2000/svg">
<path d="M20.1551 23.809H22.6388C22.6388 23.809 23.4096 23.7215 23.7522 23.2838C24.0947 22.9337 24.0947 22.1459 24.0947 22.1459C24.0947 22.1459 24.0091 18.8196 25.5507 18.2944C27.0923 17.7692 28.9765 21.5332 31.032 23.0212C32.5736 24.0716 33.7726 23.8966 33.7726 23.8966L39.2539 23.809C39.2539 23.809 42.1658 23.634 40.7955 21.3581C40.7098 21.183 40.0247 19.695 36.6845 16.5438C33.2587 13.305 33.6869 13.8302 37.8835 8.14058C40.4529 4.72679 41.395 2.62599 41.138 1.75066C40.7955 0.875332 38.9969 1.13793 38.9969 1.13793H32.8305C32.8305 1.13793 32.4023 1.0504 32.0597 1.313C31.7171 1.48806 31.5458 2.01326 31.5458 2.01326C31.5458 2.01326 30.6037 4.63926 29.2334 6.91512C26.4928 11.6419 25.3794 11.9045 24.9512 11.6419C23.9234 10.9416 24.1804 8.84085 24.1804 7.35279C24.1804 2.71353 24.8655 0.787799 22.8101 0.2626C22.1249 0.0875333 21.611 0 19.8981 0C17.6714 0 15.7872 3.13043e-07 14.7595 0.525199C14.0743 0.875332 13.4748 1.66313 13.8174 1.66313C14.2456 1.75066 15.1877 1.92573 15.6159 2.62599C16.2154 3.50133 16.2154 5.51459 16.2154 5.51459C16.2154 5.51459 16.558 10.9416 15.359 11.6419C14.5025 12.0796 13.3891 11.1167 10.9054 6.82759C9.62077 4.63926 8.67867 2.18833 8.67867 2.18833C8.67867 2.18833 8.50738 1.66313 8.1648 1.48806C7.73658 1.22546 7.22271 1.13793 7.22271 1.13793H1.31322C1.31322 1.13793 0.456773 1.13793 0.114194 1.5756C-0.142741 1.92573 0.114194 2.62599 0.114194 2.62599C0.114194 2.62599 4.73901 13.5676 9.96334 19.0822C14.7594 24.1592 20.1551 23.809 20.1551 23.809Z" />
</svg>
